<?xml version="1.0"?>
<!--Icons from directory ""-->
<svg xmlns="http://www.w3.org/2000/svg" width="300" height="300" viewBox="0 0 300 300"><svg xmlns:rdf="http://www.w3.org/1999/02/22-rdf-syntax-ns#" xmlns:cc="http://creativecommons.org/ns#" xmlns:dc="http://purl.org/dc/elements/1.1/" id="meraki-logo" viewBox="0 0 500 500.00001" width="300" version="1.1" height="300" y="0"><g id="meraki-logo-layer1" transform="translate(0 -552.36)"><path id="meraki-logo-rect4360" d="m320.71 599.98c-275.84 0.72-324.69 216.95-315.1 415.42 0 0 23.538-88.209 189.34-85.488 33.459 0.54904 71.807 9.238 110.9 8.3263 80.738-1.883 188.57-51.49 188.65-154.57-1.56-134.32-101.36-183.44-173.79-183.69zm-69.941 78.421h42.389v42.392h-42.389v-42.392zm96.082 0h42.392v42.392h-42.392v-42.392zm-130 104.56h42.392v40.978h118.69v-40.978h42.389v42.389h-42.389v40.978h-119.4v-40.978h-41.685v-42.389zm41.685 42.389h0.70705v-1.4102h-0.70705v1.4102z"/></g></svg></svg>
